<?xml version="1.0" encoding="UTF-8"?>
<svg version="1.1" xmlns="http://www.w3.org/2000/svg" width="512" height="512">
<path d="M0 0 C1.53409596 -0.00418067 3.06818882 -0.00966218 4.60227603 -0.01631981 C8.7876526 -0.03069724 12.97283096 -0.02655397 17.15821803 -0.019153 C21.68391717 -0.0144044 26.20957447 -0.02694613 30.73526001 -0.03717041 C39.59001394 -0.05433108 48.44469683 -0.05520404 57.29946307 -0.04995751 C64.5001426 -0.04590924 71.70080119 -0.04736716 78.90147972 -0.05270576 C80.44119621 -0.0538284 80.44119621 -0.0538284 82.01201808 -0.05497371 C84.09759771 -0.05650526 86.18317733 -0.0580436 88.26875695 -0.05958868 C107.80949209 -0.07330401 127.35018716 -0.06788298 146.89092138 -0.05640347 C164.74707748 -0.0464736 182.60312992 -0.05940923 200.45927004 -0.08333766 C218.81678459 -0.10775162 237.17425092 -0.11733079 255.53178138 -0.11068493 C265.82897594 -0.10719763 276.12609083 -0.10939239 286.42327309 -0.12693596 C295.18960289 -0.14168674 303.95579691 -0.14225593 312.72212414 -0.12486505 C317.18986372 -0.11637606 321.65736104 -0.11415378 326.12508774 -0.1295166 C330.22423849 -0.14343685 334.3229411 -0.13850737 338.42206641 -0.11927737 C339.89571864 -0.11553936 341.3694074 -0.118375 342.84302685 -0.12888902 C355.79462401 -0.21463997 368.09144998 1.91116779 379.6603241 8.01268005 C380.31573181 8.34968933 380.97113953 8.68669861 381.64640808 9.03392029 C388.55254585 12.71802935 394.59859537 17.31584958 400.5353241 22.38768005 C401.20950378 22.9600238 401.88368347 23.53236755 402.57829285 24.12205505 C410.42720216 31.37825496 416.10395859 40.75501931 420.4103241 50.45018005 C420.68424988 51.06175964 420.95817566 51.67333923 421.24040222 52.30345154 C425.8815299 63.32612977 426.97507928 74.00091142 426.91627502 85.87254333 C426.91973818 87.40877679 426.92450713 88.94500776 426.93045676 90.4812336 C426.94290614 94.67240816 426.93682421 98.86337611 426.9274981 103.05455112 C426.92068294 107.58632321 426.93120103 112.1180609 426.93943787 116.64982605 C426.95275115 125.51560989 426.94990819 134.38131738 426.94119994 143.24710417 C426.93441433 150.45495955 426.93351047 157.66279359 426.93677139 164.87065125 C426.93723109 165.89799507 426.93769079 166.9253389 426.93816442 167.98381436 C426.93912363 170.07109118 426.94009627 172.158368 426.94108219 174.24564481 C426.94962904 193.80059856 426.93981302 213.35551007 426.9236811 232.9104569 C426.91027856 249.67567222 426.91260685 266.44082523 426.92643738 283.20603943 C426.94250564 302.69283766 426.94880514 322.17959889 426.93960059 341.66640282 C426.93864498 343.74583816 426.93770186 345.82527351 426.93677139 347.90470886 C426.93630857 348.92772948 426.93584574 349.95075011 426.93536889 351.00477135 C426.93278274 358.20079637 426.9371419 365.39679784 426.94421005 372.59281921 C426.9526391 381.3669041 426.95031539 390.14090851 426.93436782 398.91498423 C426.92650401 403.38838789 426.92336116 407.86165756 426.93331528 412.33506012 C426.94230198 416.4358399 426.93726437 420.53636238 426.92138262 424.63711905 C426.91805157 426.11475426 426.91969082 427.59241153 426.92700998 429.07003236 C427.03644342 453.01314594 417.50459006 472.84640088 401.1603241 490.07518005 C394.83504087 496.13160337 387.5793548 500.55583613 379.8478241 504.57518005 C379.24977966 504.89607605 378.65173523 505.21697205 378.03556824 505.54759216 C366.1096773 511.52365318 353.8692039 512.98321341 340.70988464 512.89561462 C339.17319749 512.90023606 337.63651478 512.90659724 336.09984112 512.9145236 C331.92118201 512.93106973 327.74289294 512.92303848 323.5642333 512.91057873 C319.04062613 512.90146959 314.51707937 512.91552683 309.9934845 512.92649841 C301.14914411 512.94422605 292.30494 512.94046941 283.46059442 512.92884785 C276.26856388 512.91979106 269.07657136 512.91859922 261.88453674 512.92294312 C260.85846555 512.92355605 259.83239437 512.92416898 258.77523011 512.92480049 C256.69037508 512.92607947 254.60552006 512.92737632 252.52066505 512.92869085 C232.99993061 512.94007979 213.47927147 512.92700945 193.95854938 512.90548939 C177.23182462 512.88761995 160.50521092 512.89072453 143.77848816 512.90916443 C124.32459213 512.93060097 104.870762 512.93898131 85.41685581 512.92671537 C83.33994103 512.92544126 81.26302625 512.92418378 79.18611145 512.92294312 C78.16439793 512.92232601 77.14268441 512.92170891 76.09000987 512.92107311 C68.91188351 512.91762856 61.73379917 512.92342921 54.55567932 512.93286133 C45.8003945 512.94411367 37.045253 512.94097349 28.28998446 512.91973835 C23.8283047 512.90927133 19.36686336 512.90503132 14.9051857 512.91833496 C10.81169791 512.93035558 6.71866696 512.92353929 2.62521994 512.90242475 C1.15367949 512.89799924 -0.3179005 512.90013235 -1.789415 512.9099279 C-14.73240317 512.98939889 -27.02864875 510.86005377 -38.5896759 504.76268005 C-39.24508362 504.42567078 -39.90049133 504.0886615 -40.57575989 503.74143982 C-47.48371664 500.05636041 -53.52210008 495.45486227 -59.4646759 490.38768005 C-60.45854309 489.56396912 -60.45854309 489.56396912 -61.4724884 488.72361755 C-74.7704728 476.66265496 -84.3402677 456.55728258 -85.74474037 438.85835493 C-85.85214487 434.87830646 -85.87017126 430.90390271 -85.85235596 426.92300415 C-85.85653662 425.38890819 -85.86201814 423.85481533 -85.86867577 422.32072812 C-85.8830532 418.13535155 -85.87890993 413.95017319 -85.87150896 409.76478612 C-85.86676036 405.23908698 -85.87930209 400.71342968 -85.88952637 396.18774414 C-85.90668704 387.33299021 -85.90756 378.47830732 -85.90231346 369.62354108 C-85.89826519 362.42286155 -85.89972312 355.22220296 -85.90506172 348.02152443 C-85.90581014 346.99504677 -85.90655857 345.96856911 -85.90732967 344.91098607 C-85.90886121 342.82540644 -85.91039956 340.73982682 -85.91194464 338.6542472 C-85.92565996 319.11351206 -85.92023894 299.572817 -85.90875942 280.03208277 C-85.89882956 262.17592667 -85.91176519 244.31987423 -85.93569361 226.46373411 C-85.96010758 208.10621956 -85.96968674 189.74875323 -85.96304089 171.39122277 C-85.95955358 161.09402821 -85.96174835 150.79691332 -85.97929192 140.49973106 C-85.99404269 131.73340126 -85.99461188 122.96720724 -85.977221 114.20088001 C-85.96873202 109.73314043 -85.96650974 105.26564311 -85.98187256 100.79791641 C-85.99579281 96.69876566 -85.99086333 92.60006305 -85.97163332 88.50093774 C-85.96789532 87.02728552 -85.97073096 85.55359675 -85.98124497 84.0799773 C-86.0672903 71.08391825 -83.927071 58.79274022 -77.7771759 47.20018005 C-77.4375885 46.54219421 -77.0980011 45.88420837 -76.74812317 45.20628357 C-73.30851771 38.74752978 -69.17922445 32.99160315 -64.4646759 27.38768005 C-63.92584778 26.74701599 -63.38701965 26.10635193 -62.8318634 25.4462738 C-55.28232751 17.27077137 -45.46514493 10.92590424 -35.3396759 6.45018005 C-34.4281073 6.04509216 -34.4281073 6.04509216 -33.49812317 5.63182068 C-22.49299569 1.05178606 -11.83500296 -0.05296397 0 0 Z " fill="#F97667" transform="translate(85.46467590332031,-0.3876800537109375)"/>
<path d="M0 0 C52.47048854 -1.202221 99.9247965 15.86894162 138.08642578 52.28857422 C157.7031129 71.34238424 173.24954281 94.98351008 181.67626953 121.06201172 C182.09521484 122.24021484 182.51416016 123.41841797 182.94580078 124.63232422 C185.35981444 131.50241748 187.33381212 138.33616971 188.92626953 145.43701172 C189.0894165 146.16178711 189.25256348 146.8865625 189.4206543 147.63330078 C191.52869366 157.4655823 191.87018648 167.08070853 191.86376953 177.12451172 C191.86256104 179.09532715 191.86256104 179.09532715 191.86132812 181.10595703 C191.82383057 189.53257697 191.50054533 197.91200298 190.80126953 206.31201172 C190.72287842 207.25568604 190.6444873 208.19936035 190.5637207 209.17163086 C189.59774513 219.48432309 188.62500627 228.96492743 181.10986328 236.66748047 C177.27298881 239.84558763 173.85370627 240.8557769 168.88330078 240.54248047 C163.61225693 239.39497889 160.63051042 236.18752661 157.23876953 232.18701172 C153.43569631 224.66247629 155.39598077 214.69742377 156.68408203 206.69873047 C157.84320357 198.86813936 157.97992395 191.18168024 157.93701172 183.28417969 C157.92624897 180.93251979 157.93699812 178.58161806 157.94970703 176.22998047 C157.95839262 167.64490079 157.50415678 159.48762646 155.67626953 151.06201172 C155.50998047 150.26617676 155.34369141 149.4703418 155.17236328 148.65039062 C146.95642997 111.41597195 123.59778096 78.25373048 91.73339844 57.33837891 C84.97008749 53.14201176 77.83209544 49.53623394 70.67626953 46.06201172 C69.97203857 45.7164624 69.26780762 45.37091309 68.54223633 45.01489258 C62.26898589 42.07050869 55.78584909 40.20068019 49.11376953 38.37451172 C48.02902344 38.06707031 46.94427734 37.75962891 45.82666016 37.44287109 C37.23135011 35.05789435 29.0637375 33.91807584 20.17236328 33.78857422 C19.38001785 33.77600082 18.58767242 33.76342743 17.77131653 33.75047302 C0.20558099 33.52571555 -16.42316428 33.66079984 -33.32373047 39.06201172 C-34.16226563 39.32433594 -35.00080078 39.58666016 -35.86474609 39.85693359 C-74.91273343 52.39196879 -105.58070225 80.28341562 -124.50854492 116.33666992 C-142.83924134 152.43141897 -143.02506122 194.00443179 -131.32373047 232.06201172 C-129.92132683 235.91078081 -128.23369475 239.44425208 -126.32373047 243.06201172 C-125.71674065 244.32044695 -125.11424906 245.58105719 -124.51513672 246.84326172 C-112.06770855 272.83687441 -93.39562496 293.41656482 -69.32373047 309.06201172 C-67.97021484 309.96693359 -67.97021484 309.96693359 -66.58935547 310.89013672 C-54.27118689 318.74400259 -40.38904556 323.47703779 -26.32373047 327.06201172 C-25.59299316 327.25956055 -24.86225586 327.45710938 -24.109375 327.66064453 C-4.80628662 332.77853865 16.12938755 332.91957539 35.67626953 329.06201172 C36.81418945 328.85922607 36.81418945 328.85922607 37.97509766 328.65234375 C59.42885031 324.79007178 79.95444089 315.74104359 97.67626953 303.06201172 C96.33054067 300.06257267 94.84089852 297.98124993 92.51171875 295.67041016 C91.87120575 295.03004822 91.23069275 294.38968628 90.57077026 293.72991943 C89.8811319 293.05060364 89.19149353 292.37128784 88.48095703 291.67138672 C87.77351349 290.96677307 87.06606995 290.26215942 86.33718872 289.53619385 C84.07987091 287.29005782 81.8156932 285.05098163 79.55126953 282.81201172 C78.01826 281.28903455 76.48570238 279.76560233 74.95361328 278.24169922 C71.19972381 274.50984357 67.44018039 270.78375821 63.67626953 267.06201172 C60.73806984 268.2070431 57.8953654 269.40407826 55.10205078 270.86669922 C39.74820769 278.68292733 26.1747853 281.37646498 8.92626953 281.49951172 C7.13334473 281.51498047 7.13334473 281.51498047 5.30419922 281.53076172 C-21.20258463 281.26824612 -44.39227234 269.43791581 -62.87133789 250.88305664 C-81.06555512 231.97305859 -90.76795032 205.86970253 -90.62426758 179.76342773 C-89.92457808 151.42129664 -78.0804473 127.25554549 -57.88623047 107.56201172 C-47.28802888 97.86696726 -34.06202427 90.18674768 -20.32373047 86.06201172 C-19.06818359 85.67271484 -17.81263672 85.28341797 -16.51904297 84.88232422 C-1.3772774 80.56623046 15.36685605 80.41489383 30.67626953 84.06201172 C31.79259766 84.28373047 32.90892578 84.50544922 34.05908203 84.73388672 C49.7838431 88.27279261 63.83126178 96.23283797 75.67626953 107.06201172 C76.53478516 107.78001953 77.39330078 108.49802734 78.27783203 109.23779297 C96.13750812 124.42661116 107.37466402 147.85544338 109.67626953 171.06201172 C110.03603541 177.39982281 109.92211325 183.72231674 109.67626953 190.06201172 C109.64533203 191.01849609 109.61439453 191.97498047 109.58251953 192.96044922 C108.74818732 205.51714899 104.32747225 216.56532181 98.48095703 227.50341797 C96.87371591 230.67267481 95.75366727 233.6889919 94.67626953 237.06201172 C102.74929928 245.15827799 110.82507727 253.251792 118.90431213 261.34186649 C122.6562969 265.09905542 126.40735172 268.85716282 130.15625 272.61743164 C133.77854348 276.250642 137.40332037 279.88135795 141.02978516 283.51040459 C142.40844254 284.89090042 143.78622394 286.27227168 145.16308594 287.65455818 C151.82814415 294.34481336 158.47175806 300.947331 165.67626953 307.06201172 C168.60949149 309.79610525 171.45575875 312.61197224 174.30126953 315.43701172 C175.02572266 316.14083984 175.75017578 316.84466797 176.49658203 317.56982422 C184.47667274 325.49208818 191.62363285 334.39414149 192.17626953 345.99951172 C192.02914455 351.86979835 190.54017099 355.66820378 186.67626953 360.06201172 C181.90881048 364.40881262 177.07125656 364.41721911 170.86767578 364.32763672 C158.05058085 363.26085281 150.07363979 353.59917666 141.59033203 344.89794922 C141.07542206 344.37061691 140.56051208 343.84328461 140.02999878 343.29997253 C137.90698197 341.12216513 135.78575554 338.94312787 133.68261719 336.74609375 C132.12141812 335.11868206 130.54507356 333.50733915 128.96533203 331.89794922 C128.49237701 331.39605072 128.019422 330.89415222 127.53213501 330.37704468 C126.05640041 328.8314373 126.05640041 328.8314373 123.67626953 327.06201172 C120.245543 327.24533298 118.19033013 328.96736437 115.48876953 330.99951172 C103.36991918 339.66600235 90.49325358 346.53814853 76.67626953 352.06201172 C76.05905029 352.30967285 75.44183105 352.55733398 74.8059082 352.8125 C69.34216253 354.94062308 63.77017675 356.53131378 58.11376953 358.06201172 C57.22625 358.30951172 56.33873047 358.55701172 55.42431641 358.81201172 C52.51745487 359.60422948 49.6019165 360.34227574 46.67626953 361.06201172 C45.58072754 361.33924072 44.48518555 361.61646973 43.35644531 361.90209961 C32.44615996 364.39955419 21.82372645 364.57711576 10.67626953 364.49951172 C9.72472992 364.49580566 8.77319031 364.49209961 7.79281616 364.48828125 C-21.03790714 364.32835792 -47.61300464 358.50627953 -73.32373047 345.06201172 C-73.95649902 344.73652344 -74.58926758 344.41103516 -75.24121094 344.07568359 C-90.03498972 336.4040266 -103.31246546 326.61272209 -115.32373047 315.06201172 C-115.84644531 314.57039551 -116.36916016 314.0787793 -116.90771484 313.57226562 C-149.26500728 283.05052085 -170.65817927 238.82006831 -172.48486328 194.11889648 C-172.50467351 192.74714194 -172.51844036 191.37528974 -172.52685547 190.00341797 C-172.53255554 189.25599838 -172.53825562 188.5085788 -172.54412842 187.73851013 C-172.55351426 186.16284571 -172.56008663 184.58716222 -172.56396484 183.01147461 C-172.57357951 180.6614109 -172.60462581 178.31225831 -172.63623047 175.96240234 C-172.77671659 155.82689586 -168.25541946 135.92871407 -161.32373047 117.06201172 C-161.00146484 116.16998047 -160.67919922 115.27794922 -160.34716797 114.35888672 C-151.59482416 91.81687892 -137.73308019 71.77888625 -120.85595703 54.62939453 C-119.55951694 53.3032082 -118.29349562 51.94738903 -117.03466797 50.58544922 C-106.6083961 39.51508334 -93.50623576 30.52680387 -80.32373047 23.06201172 C-79.72850586 22.72331055 -79.13328125 22.38460937 -78.52001953 22.03564453 C-70.03924608 17.24561892 -61.53426704 13.28954182 -52.32373047 10.06201172 C-50.65503906 9.43166016 -50.65503906 9.43166016 -48.95263672 8.78857422 C-33.32510397 3.14006841 -16.58027512 0.44246584 0 0 Z " fill="#FEFDFD" transform="translate(246.32373046875,71.93798828125)"/>
<path d="M0 0 C14.35029731 11.14778675 24.83768687 25.72227051 28 44 C29.52987171 67.32590756 25.95321511 86.6111879 10.33203125 104.57421875 C0.3784528 114.92794105 -12.06665148 121.60798631 -26 125 C-26.89416626 125.25583862 -26.89416626 125.25583862 -27.80639648 125.5168457 C-46.35071151 129.60134202 -64.28366562 124.77015437 -80 115 C-93.80110844 105.65405569 -104.4120113 91.16333884 -109 75.0625 C-112.6840223 55.60700967 -110.94177654 35.76725943 -100 19 C-89.70582518 4.3130523 -74.3412147 -8.50925172 -56.21484375 -11.71875 C-36.32226862 -14.24479129 -16.50489825 -12.10605639 0 0 Z " fill="#FA7667" transform="translate(297,197)"/>
</svg>
