<?xml version="1.0" encoding="UTF-8"?>
<svg version="1.1" xmlns="http://www.w3.org/2000/svg" width="200" height="200">
<path d="M0 0 C66 0 132 0 200 0 C200 66 200 132 200 200 C134 200 68 200 0 200 C0 134 0 68 0 0 Z " fill="#A008F8" transform="translate(0,0)"/>
<path d="M0 0 C66 0 132 0 200 0 C200 66 200 132 200 200 C169.64 200 139.28 200 108 200 C108 199.67 108 199.34 108 199 C108.74121094 198.91363281 109.48242188 198.82726562 110.24609375 198.73828125 C130.07300267 196.09307553 148.7969426 189.36664848 164 176 C164.74378906 175.38640625 165.48757812 174.7728125 166.25390625 174.140625 C180.31095175 162.24803151 191.80982296 144.04418581 196 126 C196.17596524 123.05447983 196.09531971 120.13522293 196 117.1875 C195.88583738 111.13996669 196.09565748 105.63987772 197.66015625 99.75 C198.20391957 97.89990471 198.20391957 97.89990471 197 96 C195.90402015 92.71206046 196.03167416 90.57001453 196.1875 87.125 C196.26528932 80.80992141 194.98284199 75.69833045 192.875 69.77734375 C192 67 192 67 192 63 C190.35 63 188.7 63 187 63 C187.185625 62.0925 187.37125 61.185 187.5625 60.25 C188.070669 56.49610922 188.070669 56.49610922 187 53 C186.01 52.67 185.02 52.34 184 52 C184 50.68 184 49.36 184 48 C183.01 48 182.02 48 181 48 C181 46.35 181 44.7 181 43 C180.34 43 179.68 43 179 43 C175.4288115 40.09840934 174.19913678 37.39683488 173 33 C171.68 33 170.36 33 169 33 C168.67 33.66 168.34 34.32 168 35 C169.32 35.33 170.64 35.66 172 36 C171.1875 38.4375 171.1875 38.4375 170 41 C169.01 41.33 168.02 41.66 167 42 C167.0714624 42.58120605 167.1429248 43.16241211 167.21655273 43.76123047 C167.98381947 50.57080653 168.11912783 57.27738901 168.0625 64.125 C168.05798828 65.176875 168.05347656 66.22875 168.04882812 67.3125 C168.03718011 69.87506221 168.02082553 72.43749877 168 75 C167.31873047 75.19698486 166.63746094 75.39396973 165.93554688 75.59692383 C164.59073242 75.9917395 164.59073242 75.9917395 163.21875 76.39453125 C162.33123047 76.65339111 161.44371094 76.91225098 160.52929688 77.17895508 C157.51598422 78.15711825 154.80074586 79.52960842 152 81 C151.34 81 150.68 81 150 81 C149.01 82.98 149.01 82.98 148 85 C147.195625 84.979375 146.39125 84.95875 145.5625 84.9375 C143.06645115 84.70366379 143.06645115 84.70366379 142 86 C139.38650227 86.24802966 136.77371426 86.38372911 134.15234375 86.5234375 C130.84917472 86.89598988 130.84917472 86.89598988 127.390625 88.47631836 C122.7956903 90.22973273 118.48462703 90.64849214 113.59765625 90.85546875 C112.69802155 90.89501678 111.79838684 90.93456482 110.87149048 90.97531128 C107.93491812 91.07929991 105.00054092 91.14178437 102.0625 91.1875 C101.05909576 91.20545624 100.05569153 91.22341248 99.0218811 91.24191284 C75.98970037 91.44666667 56.38041615 84.24633287 36 74 C35 73 35 73 34.88647461 70.22436523 C34.89171143 69.01466064 34.89694824 67.80495605 34.90234375 66.55859375 C34.90556641 65.25341797 34.90878906 63.94824219 34.91210938 62.60351562 C34.92046599 61.2148431 34.92893095 59.82617123 34.9375 58.4375 C34.94251334 57.04492344 34.94707653 55.65234519 34.95117188 54.25976562 C34.96300566 50.8398013 34.9794912 47.41992156 35 44 C38.81282602 44.50184761 41.67715223 45.07861333 44.8984375 47.1953125 C45.61306152 47.65647461 46.32768555 48.11763672 47.06396484 48.59277344 C47.82660645 49.0984082 48.58924805 49.60404297 49.375 50.125 C51.06190849 51.21706008 52.74943946 52.30815906 54.4375 53.3984375 C55.33339844 53.98077148 56.22929688 54.56310547 57.15234375 55.16308594 C63.21516658 59.07398091 69.34930772 62.87291932 75.47998047 66.67626953 C79.73596007 69.31926805 83.98213919 71.95935876 88.1328125 74.765625 C88.71756348 75.15266602 89.30231445 75.53970703 89.90478516 75.93847656 C91.35297362 76.90216243 92.78675242 77.88741546 94.21875 78.875 C98.12676675 80.45577082 101.0835529 80.29269442 105 79 C108.93301306 76.97376994 112.57683269 74.58523639 116.25 72.125 C117.2296875 71.48691406 118.209375 70.84882812 119.21875 70.19140625 C123.23261751 67.56484541 127.18674057 64.91220361 131 62 C130.01 62.66 129.02 63.32 128 64 C125.3125 64.125 125.3125 64.125 123 64 C123 64.99 123 65.98 123 67 C122.01 67 121.02 67 120 67 C119.67 67.66 119.34 68.32 119 69 C118.01 69 117.02 69 116 69 C116 69.66 116 70.32 116 71 C115.01 71 114.02 71 113 71 C112.505 72.485 112.505 72.485 112 74 C111.195625 74.12375 110.39125 74.2475 109.5625 74.375 C108.2940625 74.684375 108.2940625 74.684375 107 75 C106.67 75.66 106.34 76.32 106 77 C105.34 77 104.68 77 104 77 C104 77.66 104 78.32 104 79 C97.47692308 79.36923077 97.47692308 79.36923077 95.0625 77.5 C94.711875 77.005 94.36125 76.51 94 76 C94.495 74.515 94.495 74.515 95 73 C92.69 73 90.38 73 88 73 C87.87625 72.030625 87.7525 71.06125 87.625 70.0625 C87.41875 69.051875 87.2125 68.04125 87 67 C86.34 66.67 85.68 66.34 85 66 C84.34 66.66 83.68 67.32 83 68 C82.01 68 81.02 68 80 68 C80 67.01 80 66.02 80 65 C79.05125 65.04125 78.1025 65.0825 77.125 65.125 C74 65 74 65 72 63 C72 62.01 72 61.02 72 60 C70.68 60 69.36 60 68 60 C68 59.34 68 58.68 68 58 C66.02 57.67 64.04 57.34 62 57 C61.505 53.535 61.505 53.535 61 50 C59.9171875 50.0309375 59.9171875 50.0309375 58.8125 50.0625 C54.95215322 49.97671452 51.65456175 49.21818725 48 48 C47.505 44.535 47.505 44.535 47 41 C43.535 41.495 43.535 41.495 40 42 C40 41.34 40 40.68 40 40 C39.05125 40.185625 38.1025 40.37125 37.125 40.5625 C34 41 34 41 32 40 C32 38.35 32 36.7 32 35 C31.34 34.67 30.68 34.34 30 34 C31.32 33.01 32.64 32.02 34 31 C34 32.65 34 34.3 34 36 C34.66 36 35.32 36 36 36 C36.66 34.68 37.32 33.36 38 32 C38.66 32 39.32 32 40 32 C40.2475 31.401875 40.495 30.80375 40.75 30.1875 C42 28 42 28 44.0625 26.75 C47.13283082 23.97679797 46.73526099 21.03726989 47 17 C48.98 16.67 50.96 16.34 53 16 C53 15.01 53 14.02 53 13 C53.99 13 54.98 13 56 13 C56 12.34 56 11.68 56 11 C37.35172024 20.01967817 22.95794 33.8267595 13 52 C12.071875 53.69382812 12.071875 53.69382812 11.125 55.421875 C5.77623477 65.74772609 3.33351124 76.66650435 1 88 C0.67 88 0.34 88 0 88 C0 58.96 0 29.92 0 0 Z " fill="#C705FA" transform="translate(0,0)"/>
<path d="M0 0 C2.02511099 3.91521458 3.13976485 7.07054482 3.125 11.5 C3.12886719 12.66015625 3.12886719 12.66015625 3.1328125 13.84375 C3 16 3 16 2 19 C2.66 19 3.32 19 4 19 C4.309375 19.804375 4.61875 20.60875 4.9375 21.4375 C5.76335345 23.89080405 5.76335345 23.89080405 7 25 C7 26.99612093 6.99741664 28.99236617 6.96875 30.98828125 C7.00191572 33.12332452 7.32452774 34.97358321 8 37 C9.98 37.33 11.96 37.66 14 38 C13.34 38.99 12.68 39.98 12 41 C12.33 41.33 12.66 41.66 13 42 C13.144375 43.093125 13.28875 44.18625 13.4375 45.3125 C13.91520084 48.44409439 14.22228061 50.4321831 16 53 C17.485 53.495 17.485 53.495 19 54 C21.1875 55.8125 21.1875 55.8125 23 58 C23 59.32 23 60.64 23 62 C23.639375 62.144375 24.27875 62.28875 24.9375 62.4375 C27 63 27 63 28 64 C28.33 63.34 28.66 62.68 29 62 C29.99 61.505 29.99 61.505 31 61 C31 48.13 31 35.26 31 22 C31.66 22 32.32 22 33 22 C33.66 22.66 34.32 23.32 35 24 C35.66 23.34 36.32 22.68 37 22 C39.1640625 21.8046875 39.1640625 21.8046875 41.625 21.875 C42.85089844 21.90207031 42.85089844 21.90207031 44.1015625 21.9296875 C45.04128906 21.96449219 45.04128906 21.96449219 46 22 C46.33 21.34 46.66 20.68 47 20 C46.34 19.67 45.68 19.34 45 19 C45 18.01 45 17.02 45 16 C46.32 16 47.64 16 49 16 C49 16.66 49 17.32 49 18 C49.99 18.33 50.98 18.66 52 19 C52 18.34 52 17.68 52 17 C55.63 17 59.26 17 63 17 C60.53879159 19.46120841 58.37298653 20.15003423 55.1171875 21.3828125 C54.06644043 21.78387207 53.01569336 22.18493164 51.93310547 22.59814453 C50.59393066 23.10200684 49.25475586 23.60586914 47.875 24.125 C43.62625 25.73375 39.3775 27.3425 35 29 C34.67 38.57 34.34 48.14 34 58 C40.29541649 55.79699322 40.29541649 55.79699322 45.76171875 52.7578125 C46.394729 52.33814209 47.02773926 51.91847168 47.67993164 51.48608398 C48.3424292 51.03692627 49.00492676 50.58776855 49.6875 50.125 C51.17838857 49.13735932 52.67064077 48.15177481 54.1640625 47.16796875 C54.9468457 46.65153809 55.72962891 46.13510742 56.53613281 45.60302734 C61.70965832 42.23705742 66.97664685 39.01907885 72.24169922 35.79882812 C76.41549151 33.24146673 80.55154994 30.65638371 84.609375 27.91796875 C85.32279053 27.44496338 86.03620605 26.97195801 86.77124023 26.48461914 C88.08485537 25.60966128 89.38761247 24.71805876 90.67602539 23.80639648 C94.39880913 21.35328868 97.36541863 20.36511694 101.81030273 21.22998047 C106.5085739 22.88215432 110.51870363 25.73473912 114.625 28.5 C116.57139195 29.78288993 118.51800665 31.06544196 120.46484375 32.34765625 C121.4069873 32.97430176 122.34913086 33.60094727 123.31982422 34.24658203 C125.66592623 35.78144308 128.03228982 37.2506185 130.44140625 38.68359375 C131.0844873 39.07160156 131.72756836 39.45960938 132.39013672 39.859375 C134.06089645 40.86155851 135.73914612 41.85122631 137.41796875 42.83984375 C140.75738299 45.63363509 141.57431384 47.92871067 143 52 C143.99 52 144.98 52 146 52 C145.67 53.32 145.34 54.64 145 56 C145.66 56 146.32 56 147 56 C147 56.66 147 57.32 147 58 C147.99 58 148.98 58 150 58 C150.33 57.01 150.66 56.02 151 55 C154.66881155 55.70554068 157.70450534 57.27735506 161 59 C161 59.99 161 60.98 161 62 C162.98 62 164.96 62 167 62 C167 62.99 167 63.98 167 65 C167.99 65.33 168.98 65.66 170 66 C170 67.65 170 69.3 170 71 C169.01 71.33 168.02 71.66 167 72 C166.67 72.99 166.34 73.98 166 75 C165.34 75 164.68 75 164 75 C163.9071875 75.59425781 163.814375 76.18851562 163.71875 76.80078125 C161.3579991 84.02416579 150.17760881 88.42246256 143.79394531 91.78808594 C119.46080411 104.02339422 91.72578812 105.15681867 66 97 C62.15101393 95.59389642 58.59615969 93.95570373 55 92 C54.0821875 91.53722656 53.164375 91.07445312 52.21875 90.59765625 C45.91778684 87.33465747 40.40818786 83.58193694 35 79 C34.175 78.3090625 33.35 77.618125 32.5 76.90625 C15.91015185 62.54186928 3.14353738 40.95064757 0 19 C-0.42049516 12.66682804 -0.24557261 6.33713756 0 0 Z " fill="#780AF5" transform="translate(1,98)"/>
<path d="M0 0 C3.81282602 0.50184761 6.67715223 1.07861333 9.8984375 3.1953125 C10.97037354 3.88705566 10.97037354 3.88705566 12.06396484 4.59277344 C12.82660645 5.0984082 13.58924805 5.60404297 14.375 6.125 C16.06190849 7.21706008 17.74943946 8.30815906 19.4375 9.3984375 C20.33339844 9.98077148 21.22929688 10.56310547 22.15234375 11.16308594 C28.21516658 15.07398091 34.34930772 18.87291932 40.47998047 22.67626953 C44.73596007 25.31926805 48.98213919 27.95935876 53.1328125 30.765625 C53.71756348 31.15266602 54.30231445 31.53970703 54.90478516 31.93847656 C56.35297362 32.90216243 57.78675242 33.88741546 59.21875 34.875 C63.09363093 36.44236757 66.10556373 36.24352903 70 35 C73.52040037 33.22791661 76.73801648 31.08041795 80 28.875 C81.94189391 27.60032092 83.88463393 26.32693009 85.828125 25.0546875 C86.83423828 24.39049805 87.84035156 23.72630859 88.87695312 23.04199219 C94.11812573 19.61507164 99.43438818 16.30979892 104.75 13 C105.72453125 12.3901123 106.6990625 11.78022461 107.703125 11.15185547 C109.56439006 9.98888439 111.42823183 8.83002456 113.29492188 7.67578125 C115.13114926 6.53824833 116.96039852 5.38938873 118.78320312 4.23046875 C119.66427734 3.68003906 120.54535156 3.12960938 121.453125 2.5625 C122.23333008 2.06878906 123.01353516 1.57507812 123.81738281 1.06640625 C126 0 126 0 130 0 C130 9.57 130 19.14 130 29 C126.37 30.65 122.74 32.3 119 34 C116.91813078 35.03285247 114.83827932 36.06979677 112.76171875 37.11328125 C85.79934577 49.75466878 55.20464419 51.51172485 27.06756592 41.37966919 C3.41584956 32.41584956 3.41584956 32.41584956 0 29 C-0.08775605 26.85441173 -0.10695219 24.70595579 -0.09765625 22.55859375 C-0.09443359 21.25341797 -0.09121094 19.94824219 -0.08789062 18.60351562 C-0.07953401 17.2148431 -0.07106905 15.82617123 -0.0625 14.4375 C-0.05748666 13.04492344 -0.05292347 11.65234519 -0.04882812 10.25976562 C-0.03699434 6.8398013 -0.0205088 3.41992156 0 0 Z " fill="#FDF8FD" transform="translate(35,44)"/>
<path d="M0 0 C1 1 1 1 1.11352539 3.77563477 C1.10828857 4.98533936 1.10305176 6.19504395 1.09765625 7.44140625 C1.09443359 8.74658203 1.09121094 10.05175781 1.08789062 11.39648438 C1.07953401 12.7851569 1.07106905 14.17382877 1.0625 15.5625 C1.05748666 16.95507656 1.05292347 18.34765481 1.04882812 19.74023438 C1.03699434 23.1601987 1.0205088 26.58007844 1 30 C-3.35936396 29.47814335 -6.30564755 28.5171678 -9.9921875 26.1484375 C-10.93312256 25.55144043 -11.87405762 24.95444336 -12.84350586 24.33935547 C-13.84389893 23.69111816 -14.84429199 23.04288086 -15.875 22.375 C-18.01940274 21.01021473 -20.16393797 19.64563761 -22.30859375 18.28125 C-23.40929199 17.57613281 -24.50999023 16.87101562 -25.64404297 16.14453125 C-31.05399072 12.68745421 -36.49519053 9.28081039 -41.9375 5.875 C-42.91251465 5.26060059 -43.8875293 4.64620117 -44.89208984 4.01318359 C-47.584106 2.32421238 -50.29076172 0.66114629 -53 -1 C-53.8058252 -1.51916992 -54.61165039 -2.03833984 -55.44189453 -2.57324219 C-59.02983128 -4.77525786 -61.27027334 -5.97258485 -65.53515625 -6.1328125 C-70.01619377 -4.66776077 -73.53835392 -2.48886892 -77.4375 0.125 C-79.11521788 1.21717194 -80.79363844 2.30826503 -82.47265625 3.3984375 C-83.36227051 3.98077148 -84.25188477 4.56310547 -85.16845703 5.16308594 C-90.19589795 8.42455046 -95.28784887 11.58279843 -100.375 14.75 C-102.4089611 16.0167554 -104.44281852 17.2836773 -106.4765625 18.55078125 C-107.42563477 19.14197754 -108.37470703 19.73317383 -109.35253906 20.34228516 C-111.66808292 21.79216922 -113.97339256 23.25618132 -116.2734375 24.73046875 C-117.17763428 25.3042627 -117.17763428 25.3042627 -118.10009766 25.88964844 C-119.60679968 26.8465536 -121.10836709 27.81153128 -122.609375 28.77734375 C-125 30 -125 30 -129 30 C-129 20.43 -129 10.86 -129 1 C-125.37 -0.65 -121.74 -2.3 -118 -4 C-115.91813078 -5.03285247 -113.83827932 -6.06979677 -111.76171875 -7.11328125 C-74.10853709 -24.76708574 -36.1022374 -18.15053918 0 0 Z " fill="#FCF8FD" transform="translate(164,126)"/>
<path d="M0 0 C0.33 0 0.66 0 1 0 C1 30.69 1 61.38 1 93 C-29.36 93 -59.72 93 -91 93 C-91 92.67 -91 92.34 -91 92 C-90.25878906 91.91363281 -89.51757812 91.82726562 -88.75390625 91.73828125 C-68.92699733 89.09307553 -50.2030574 82.36664848 -35 69 C-34.25621094 68.38640625 -33.51242188 67.7728125 -32.74609375 67.140625 C-22.73055435 58.66724142 -16.07545461 48.48456904 -10 37 C-9.51402344 36.08347656 -9.02804688 35.16695312 -8.52734375 34.22265625 C-3.34638868 23.68646322 -0.56272037 11.70458367 0 0 Z " fill="#FDFBFE" transform="translate(199,107)"/>
<path d="M0 0 C29.04 0 58.08 0 88 0 C88 29.04 88 58.08 88 88 C87.67 88 87.34 88 87 88 C86.8956665 87.46334717 86.79133301 86.92669434 86.68383789 86.3737793 C83.02503825 68.13014042 77.10697452 51.43699603 65 37 C64.27554688 36.1028125 63.55109375 35.205625 62.8046875 34.28125 C46.3859524 14.99059094 24.27197803 6.02178856 0 1 C0 0.67 0 0.34 0 0 Z " fill="#FEFAFE" transform="translate(112,0)"/>
<path d="M0 0 C0.33 0 0.66 0 1 0 C1.14695313 1.0415625 1.29390625 2.083125 1.4453125 3.15625 C4.35880451 22.32396061 11.2529269 40.11505301 24 55 C24.66644531 55.81082031 25.33289063 56.62164062 26.01953125 57.45703125 C42.32073392 76.57790141 64.04219537 85.18692814 88 90 C88 90.33 88 90.66 88 91 C58.96 91 29.92 91 0 91 C0 60.97 0 30.94 0 0 Z " fill="#FDFBFE" transform="translate(0,109)"/>
<path d="M0 0 C29.04 0 58.08 0 88 0 C88 0.33 88 0.66 88 1 C86.92363281 1.23074219 85.84726563 1.46148437 84.73828125 1.69921875 C57.0868893 7.79766771 32.3985209 20.87262888 16.8125 45.25 C15.51240847 47.48322175 14.24174444 49.7338164 13 52 C12.071875 53.69382812 12.071875 53.69382812 11.125 55.421875 C5.77623477 65.74772609 3.33351124 76.66650435 1 88 C0.67 88 0.34 88 0 88 C0 58.96 0 29.92 0 0 Z " fill="#FDFBFD" transform="translate(0,0)"/>
<path d="M0 0 C2.02511099 3.91521458 3.13976485 7.07054482 3.125 11.5 C3.12886719 12.66015625 3.12886719 12.66015625 3.1328125 13.84375 C3 16 3 16 2 19 C2.66 19 3.32 19 4 19 C4.309375 19.804375 4.61875 20.60875 4.9375 21.4375 C5.76335345 23.89080405 5.76335345 23.89080405 7 25 C7 26.99612093 6.99741664 28.99236617 6.96875 30.98828125 C7.00191572 33.12332452 7.32452774 34.97358321 8 37 C9.98 37.33 11.96 37.66 14 38 C13.34 38.99 12.68 39.98 12 41 C12.33 41.33 12.66 41.66 13 42 C13.144375 43.093125 13.28875 44.18625 13.4375 45.3125 C13.91520084 48.44409439 14.22228061 50.4321831 16 53 C17.485 53.495 17.485 53.495 19 54 C21.1875 55.8125 21.1875 55.8125 23 58 C23 59.32 23 60.64 23 62 C23.8971875 62.0928125 23.8971875 62.0928125 24.8125 62.1875 C27 63 27 63 28.4375 65.5 C29.75992531 68.22770079 29.75992531 68.22770079 32.5 68.75 C33.325 68.8325 34.15 68.915 35 69 C38 70 38 70 40 73 C40.39387788 75.32387947 40.73486085 77.65793749 41 80 C43.51083114 78.74458443 43.87125446 77.49936512 45 75 C45.309375 76.093125 45.61875 77.18625 45.9375 78.3125 C46.58337897 80.55407994 47.2623117 82.7869351 48 85 C48.99 85.495 48.99 85.495 50 86 C50.99 86.495 50.99 86.495 52 87 C52.33 87.99 52.66 88.98 53 90 C34.29123692 84.51827787 19.21161974 65.17177969 10.25 48.8125 C5.87971096 40.55230723 3.25177413 32.03725421 1 23 C0.72845093 22.04202515 0.72845093 22.04202515 0.45141602 21.06469727 C-0.04400914 18.79870995 -0.11331981 16.77133259 -0.09765625 14.453125 C-0.09443359 13.60878906 -0.09121094 12.76445313 -0.08789062 11.89453125 C-0.07951172 11.02183594 -0.07113281 10.14914063 -0.0625 9.25 C-0.05798828 8.36183594 -0.05347656 7.47367187 -0.04882812 6.55859375 C-0.037074 4.37232671 -0.02064249 2.18619821 0 0 Z " fill="#5D13E8" transform="translate(1,98)"/>
<path d="M0 0 C1.32 0 2.64 0 4 0 C4 0.66 4 1.32 4 2 C4.99 2.33 5.98 2.66 7 3 C7 2.34 7 1.68 7 1 C10.63 1 14.26 1 18 1 C15.53879159 3.46120841 13.37298653 4.15003423 10.1171875 5.3828125 C9.06644043 5.78387207 8.01569336 6.18493164 6.93310547 6.59814453 C5.59393066 7.10200684 4.25475586 7.60586914 2.875 8.125 C-3.498125 10.538125 -3.498125 10.538125 -10 13 C-10.33 22.57 -10.66 32.14 -11 42 C-4.46985972 39.66880281 -4.46985972 39.66880281 1.21875 36.4765625 C1.92386719 36.0125 2.62898438 35.5484375 3.35546875 35.0703125 C4.06316406 34.59335938 4.77085938 34.11640625 5.5 33.625 C6.9266793 32.67907784 8.35376119 31.73376259 9.78125 30.7890625 C10.47476563 30.32918945 11.16828125 29.86931641 11.8828125 29.39550781 C14.0496227 27.96729205 16.22074762 26.54790856 18.40625 25.1484375 C19.04884766 24.73513184 19.69144531 24.32182617 20.35351562 23.89599609 C22 23 22 23 24 23 C24 23.66 24 24.32 24 25 C23.34 25 22.68 25 22 25 C21.67 26.32 21.34 27.64 21 29 C20.11699219 29.09152344 19.23398438 29.18304688 18.32421875 29.27734375 C14.6518042 30.07569474 12.77138535 31.29172753 9.8125 33.5625 C5.30985915 37 5.30985915 37 2 37 C2 37.66 2 38.32 2 39 C0.8197974 39.65907418 -0.36970734 40.3014948 -1.5625 40.9375 C-2.55443359 41.47697266 -2.55443359 41.47697266 -3.56640625 42.02734375 C-6 43 -6 43 -13 44 C-13.33 31.46 -13.66 18.92 -14 6 C-13.34 6 -12.68 6 -12 6 C-11.34 6.66 -10.68 7.32 -10 8 C-9.34 7.34 -8.68 6.68 -8 6 C-5.8359375 5.8046875 -5.8359375 5.8046875 -3.375 5.875 C-2.14910156 5.90207031 -2.14910156 5.90207031 -0.8984375 5.9296875 C0.04128906 5.96449219 0.04128906 5.96449219 1 6 C1.33 5.34 1.66 4.68 2 4 C1.34 3.67 0.68 3.34 0 3 C0 2.01 0 1.02 0 0 Z " fill="#6A13E4" transform="translate(46,114)"/>
<path d="M0 0 C0.680625 0.309375 1.36125 0.61875 2.0625 0.9375 C5.06296681 2.15744689 5.06296681 2.15744689 8.6875 2.375 C12 3 12 3 13.4375 5.0625 C13.7159375 6.0215625 13.7159375 6.0215625 14 7 C15.32 7 16.64 7 18 7 C18.20625 7.639375 18.4125 8.27875 18.625 8.9375 C19.88417172 11.3508355 19.88417172 11.3508355 23.0625 11.625 C24.031875 11.74875 25.00125 11.8725 26 12 C26.33 12.66 26.66 13.32 27 14 C27.66 14 28.32 14 29 14 C29.66 13.34 30.32 12.68 31 12 C34 14 34 14 34.6875 16.625 C34.8421875 17.800625 34.8421875 17.800625 35 19 C36.98 19.33 38.96 19.66 41 20 C41.144375 20.639375 41.28875 21.27875 41.4375 21.9375 C41.81007181 23.97545146 41.81007181 23.97545146 43 25 C45.32817964 25.36760731 47.6618385 25.70241581 50 26 C50 25.34 50 24.68 50 24 C50.66 24 51.32 24 52 24 C52.66 22.68 53.32 21.36 54 20 C55.32 20 56.64 20 58 20 C58.33 19.34 58.66 18.68 59 18 C59.99 18 60.98 18 62 18 C62 17.34 62 16.68 62 16 C62.99 16 63.98 16 65 16 C65.33 15.01 65.66 14.02 66 13 C66.99 13.33 67.98 13.66 69 14 C69 13.01 69 12.02 69 11 C69.78375 10.87625 70.5675 10.7525 71.375 10.625 C74.14057822 10.20882007 74.14057822 10.20882007 76 8 C76.99 8.33 77.98 8.66 79 9 C75.33805343 11.42387703 71.6696255 13.83776744 68 16.25 C66.97003906 16.93191406 65.94007812 17.61382812 64.87890625 18.31640625 C50.18998135 27.95308946 50.18998135 27.95308946 44.53515625 28.07421875 C39.93975549 26.67782625 36.40950866 24.46905677 32.4375 21.8125 C30.77368123 20.72879237 29.1096074 19.64547627 27.4453125 18.5625 C26.13288574 17.70011719 26.13288574 17.70011719 24.79394531 16.8203125 C21.83586094 14.89306005 18.85549069 13.00502717 15.8671875 11.125 C14.85857666 10.48973389 13.84996582 9.85446777 12.81079102 9.19995117 C10.827644 7.95154228 8.84376838 6.70428998 6.85913086 5.45825195 C5.96331299 4.89066162 5.06749512 4.32307129 4.14453125 3.73828125 C3.34378174 3.23337158 2.54303223 2.72846191 1.71801758 2.20825195 C1.15107178 1.80952881 0.58412598 1.41080566 0 1 C0 0.67 0 0.34 0 0 Z " fill="#AF1BE4" transform="translate(54,53)"/>
<path d="M0 0 C0 0.66 0 1.32 0 2 C-0.99 2 -1.98 2 -3 2 C-3 2.99 -3 3.98 -3 5 C-4.65 5.66 -6.3 6.32 -8 7 C-8.04125 8.051875 -8.0825 9.10375 -8.125 10.1875 C-9.06658333 14.29011307 -10.03554442 15.32611376 -13.375 17.734375 C-15.13338235 19.10388433 -16.37632676 20.56270195 -17.75 22.3125 C-18.4925 23.199375 -19.235 24.08625 -20 25 C-20.66 25 -21.32 25 -22 25 C-22 22.36 -22 19.72 -22 17 C-22.66 17.33 -23.32 17.66 -24 18 C-24.33 18.99 -24.66 19.98 -25 21 C-25.99 21 -26.98 21 -28 21 C-28 22.32 -28 23.64 -28 25 C-29.63064764 26.05771739 -31.30280873 27.05273046 -33 28 C-35.29518219 30.3743264 -35.96098229 31.42774033 -36.1875 34.75 C-36.125625 35.4925 -36.06375 36.235 -36 37 C-37.98 37.495 -37.98 37.495 -40 38 C-40 39.32 -40 40.64 -40 42 C-41.98 42.495 -41.98 42.495 -44 43 C-39.04147195 26.07686447 -22.49552082 12.16743749 -8 3 C-2.48596112 0 -2.48596112 0 0 0 Z " fill="#9F08F4" transform="translate(56,11)"/>
<path d="M0 0 C10.71733138 8.43704811 17.73250375 19.08486976 24 31 C24.47308594 31.85722656 24.94617188 32.71445312 25.43359375 33.59765625 C35.32819673 53.04779482 35.84173081 74.97338404 32 96 C31.67 96 31.34 96 31 96 C30.14554918 88.63324832 29.73433806 82.14574653 31.625 74.92578125 C32.21746754 72.92666351 32.21746754 72.92666351 31 71 C29.90402015 67.71206046 30.03167416 65.57001453 30.1875 62.125 C30.26528932 55.80992141 28.98284199 50.69833045 26.875 44.77734375 C26 42 26 42 26 38 C24.35 38 22.7 38 21 38 C21.185625 37.0925 21.37125 36.185 21.5625 35.25 C22.070669 31.49610922 22.070669 31.49610922 21 28 C20.01 27.67 19.02 27.34 18 27 C18 25.68 18 24.36 18 23 C17.01 23 16.02 23 15 23 C15 21.35 15 19.7 15 18 C14.34 18 13.68 18 13 18 C10.2990568 15.749214 8.62612713 13.44159407 7 10.375 C4.93861218 6.89640805 4.36092067 6.62251343 1 5 C0.25 2.375 0.25 2.375 0 0 Z " fill="#E024E9" transform="translate(166,25)"/>
<path d="M0 0 C0.66 0 1.32 0 2 0 C2.88563089 3.79074537 3.11681301 7.28695898 3.09765625 11.17578125 C3.09443359 12.33271484 3.09121094 13.48964844 3.08789062 14.68164062 C3.07532227 16.47891602 3.07532227 16.47891602 3.0625 18.3125 C3.05798828 19.53001953 3.05347656 20.74753906 3.04882812 22.00195312 C3.03706578 25.00135226 3.02062826 28.00065089 3 31 C2.31873047 31.19698486 1.63746094 31.39396973 0.93554688 31.59692383 C0.03900391 31.86013428 -0.85753906 32.12334473 -1.78125 32.39453125 C-2.66876953 32.65339111 -3.55628906 32.91225098 -4.47070312 33.17895508 C-7.48401578 34.15711825 -10.19925414 35.52960842 -13 37 C-13.66 37 -14.32 37 -15 37 C-15.66 38.32 -16.32 39.64 -17 41 C-17.804375 40.979375 -18.60875 40.95875 -19.4375 40.9375 C-21.93354885 40.70366379 -21.93354885 40.70366379 -23 42 C-24.51928038 42.07179964 -26.04167482 42.08392007 -27.5625 42.0625 C-28.38878906 42.05347656 -29.21507812 42.04445312 -30.06640625 42.03515625 C-30.70449219 42.02355469 -31.34257812 42.01195312 -32 42 C-28.90859682 39.93906455 -26.04105143 38.74448155 -22.58203125 37.3984375 C-21.96478683 37.1571109 -21.34754242 36.9157843 -20.71159363 36.66714478 C-18.74651974 35.89973677 -16.7795566 35.13730953 -14.8125 34.375 C-13.47708578 33.85449435 -12.14179779 33.33366469 -10.80664062 32.8125 C-7.53943172 31.53729354 -4.26971359 30.26884408 -1 29 C-0.67 19.43 -0.34 9.86 0 0 Z " fill="#BA1AE6" transform="translate(165,44)"/>
<path d="M0 0 C0.33 0 0.66 0 1 0 C1.33 9.57 1.66 19.14 2 29 C12.89 33.29 23.78 37.58 35 42 C31.68629 44.20914 30.6553979 44.22481553 26.8125 44.125 C25.91144531 44.10695312 25.01039062 44.08890625 24.08203125 44.0703125 C23.39496094 44.04710937 22.70789063 44.02390625 22 44 C22.33 42.35 22.66 40.7 23 39 C22.40832031 38.89042969 21.81664063 38.78085938 21.20703125 38.66796875 C16.48958052 37.72140033 13.10226424 36.56391515 9 34 C6.03293932 32.89176002 3.0271963 31.92992305 0 31 C0 31.66 0 32.32 0 33 C-0.66 33 -1.32 33 -2 33 C-1.88185874 28.62155592 -1.75761831 24.24334071 -1.62768555 19.86523438 C-1.58433411 18.37537359 -1.54265916 16.88546305 -1.50268555 15.39550781 C-1.44498785 13.25570673 -1.38129245 11.11615615 -1.31640625 8.9765625 C-1.27974854 7.68830566 -1.24309082 6.40004883 -1.20532227 5.07275391 C-1 2 -1 2 0 0 Z " fill="#7D16D6" transform="translate(34,44)"/>
<path d="M0 0 C2 1 2 1 2.6875 2.875 C3 5 3 5 2 8 C3.5778125 7.9690625 3.5778125 7.9690625 5.1875 7.9375 C12.58823529 8.05882353 12.58823529 8.05882353 15.875 10.25 C17 12 17 12 16.5703125 14.609375 C16.38210937 15.39828125 16.19390625 16.1871875 16 17 C8.57619421 14.18854126 2.00378448 10.98452619 -4.52734375 6.453125 C-7.07447096 4.95623508 -9.09148296 4.39543344 -12 4 C-12 4.66 -12 5.32 -12 6 C-12.66 5.67 -13.32 5.34 -14 5 C-13.67 4.01 -13.34 3.02 -13 2 C-12.14535156 1.93941406 -11.29070313 1.87882812 -10.41015625 1.81640625 C-8.75306641 1.69072266 -8.75306641 1.69072266 -7.0625 1.5625 C-5.96035156 1.48128906 -4.85820313 1.40007813 -3.72265625 1.31640625 C-1.08890097 1.29581916 -1.08890097 1.29581916 0 0 Z " fill="#9710F0" transform="translate(46,40)"/>
<path d="M0 0 C0.66 0 1.32 0 2 0 C2.024727 4.35994067 2.04287281 8.71984414 2.05493164 13.07983398 C2.05995903 14.56291413 2.06678185 16.04598933 2.07543945 17.52905273 C2.08757482 19.66130801 2.09324425 21.79349773 2.09765625 23.92578125 C2.10551147 25.85031128 2.10551147 25.85031128 2.11352539 27.8137207 C2 31 2 31 1 34 C0.01 34 -0.98 34 -2 34 C-2 33.01 -2 32.02 -2 31 C-5.31114834 29.87119943 -8.58978257 28.78697325 -12 28 C-12.33 28.66 -12.66 29.32 -13 30 C-13.99 30 -14.98 30 -16 30 C-16 29.34 -16 28.68 -16 28 C-16.66 28 -17.32 28 -18 28 C-18 26.68 -18 25.36 -18 24 C-18.99 24 -19.98 24 -21 24 C-21.33 22.02 -21.66 20.04 -22 18 C-16.11511597 21.14798024 -10.30843809 24.31251108 -4.75390625 28.01953125 C-2.72507056 29.25408964 -2.72507056 29.25408964 1 30 C0.67 20.1 0.34 10.2 0 0 Z " fill="#941ADE" transform="translate(164,126)"/>
<path d="M0 0 C0 0.99 0 1.98 0 3 C1.31484375 2.98259766 1.31484375 2.98259766 2.65625 2.96484375 C15.12341302 2.87615458 27.54840605 3.41360229 40 4 C40 4.33 40 4.66 40 5 C38.85635986 5.00410889 37.71271973 5.00821777 36.53442383 5.01245117 C32.23059985 5.03446905 27.92766105 5.08898723 23.62426758 5.15258789 C21.77311788 5.17557256 19.92184104 5.19011702 18.07055664 5.19555664 C7.66270974 5.23213464 -1.05753168 5.49295273 -10.5949707 10.0324707 C-13 11 -13 11 -16 10 C-15.4225 9.59007813 -14.845 9.18015625 -14.25 8.7578125 C-13.5075 8.21898438 -12.765 7.68015625 -12 7.125 C-11.2575 6.59132813 -10.515 6.05765625 -9.75 5.5078125 C-9.1725 5.01023437 -8.595 4.51265625 -8 4 C-8 3.34 -8 2.68 -8 2 C-5.09399739 0.74335022 -3.20395416 0 0 0 Z " fill="#8512E6" transform="translate(80,104)"/>
<path d="M0 0 C0.33 0 0.66 0 1 0 C1 9.9 1 19.8 1 30 C7.53014028 27.66880281 7.53014028 27.66880281 13.21875 24.4765625 C14.27642578 23.78046875 14.27642578 23.78046875 15.35546875 23.0703125 C16.06316406 22.59335938 16.77085938 22.11640625 17.5 21.625 C18.9266793 20.67907784 20.35376119 19.73376259 21.78125 18.7890625 C22.47476563 18.32918945 23.16828125 17.86931641 23.8828125 17.39550781 C26.0496227 15.96729205 28.22074762 14.54790856 30.40625 13.1484375 C31.04884766 12.73513184 31.69144531 12.32182617 32.35351562 11.89599609 C34 11 34 11 36 11 C36 11.66 36 12.32 36 13 C35.34 13 34.68 13 34 13 C33.67 14.32 33.34 15.64 33 17 C32.11699219 17.09152344 31.23398438 17.18304688 30.32421875 17.27734375 C26.6518042 18.07569474 24.77138535 19.29172753 21.8125 21.5625 C17.30985915 25 17.30985915 25 14 25 C14 25.66 14 26.32 14 27 C12.8197974 27.65907418 11.63029266 28.3014948 10.4375 28.9375 C9.77621094 29.29714844 9.11492188 29.65679687 8.43359375 30.02734375 C6 31 6 31 -1 32 C-0.67 21.44 -0.34 10.88 0 0 Z " fill="#6224CD" transform="translate(34,126)"/>
<path d="M0 0 C3.39516857 1.27155682 6.37912101 2.73082558 9.43359375 4.6796875 C10.24763672 5.19660156 11.06167969 5.71351563 11.90039062 6.24609375 C12.73763672 6.78363281 13.57488281 7.32117188 14.4375 7.875 C15.68756836 8.66970703 15.68756836 8.66970703 16.96289062 9.48046875 C21.34257332 12.27100176 25.69204677 15.10001197 30 18 C27.63386544 19.18306728 26.13219264 19.13354608 23.5 19.125 C22.7059375 19.12757813 21.911875 19.13015625 21.09375 19.1328125 C19 19 19 19 17 18 C17.103125 17.2575 17.20625 16.515 17.3125 15.75 C17.26989682 12.78737059 17.26989682 12.78737059 14.6875 10.75 C12.06541503 8.88143125 12.06541503 8.88143125 9 8 C9 7.34 9 6.68 9 6 C6.48916886 7.25541557 6.12874554 8.50063488 5 11 C3.68 10.34 2.36 9.68 1 9 C1 8.34 1 7.68 1 7 C1.99 6.67 2.98 6.34 4 6 C3.67 5.34 3.34 4.68 3 4 C2.67 3.34 2.34 2.68 2 2 C1.34 2 0.68 2 0 2 C0 1.34 0 0.68 0 0 Z " fill="#8D21DA" transform="translate(111,125)"/>
<path d="M0 0 C0.68707555 2.49064888 1 4.37886292 1 7 C0.01 7 -0.98 7 -2 7 C-2.03738281 7.74765625 -2.07476563 8.4953125 -2.11328125 9.265625 C-2.17902344 10.25046875 -2.24476562 11.2353125 -2.3125 12.25 C-2.37050781 13.22453125 -2.42851562 14.1990625 -2.48828125 15.203125 C-3.04636524 18.25341611 -3.96369776 19.70711276 -6 22 C-5.34 22.33 -4.68 22.66 -4 23 C-4.474375 23.721875 -4.94875 24.44375 -5.4375 25.1875 C-7.71344766 29.59050155 -7.51026871 34.41175168 -7.69140625 39.26953125 C-7.79324219 40.17058594 -7.89507812 41.07164063 -8 42 C-8.99 42.495 -8.99 42.495 -10 43 C-11.01358298 27.72868303 -7.83592468 13.27105541 0 0 Z " fill="#741FDD" transform="translate(11,54)"/>
<path d="M0 0 C2.31945421 5.92910482 -1.61306428 12.51852793 -4 18 C-6.14393789 22.43787249 -8.53906586 26.73059841 -11 31 C-13.03233687 26.93532625 -12.1009684 22.26556097 -11 18 C-9.18045879 15.21980616 -7.15640505 12.84767591 -4.9453125 10.37109375 C-2.25617586 7.09337098 -1.19564122 4.0352891 0 0 Z " fill="#BA11EF" transform="translate(196,122)"/>
<path d="M0 0 C19.29960662 -0.63365295 36.29726931 0.67263548 54 9 C54.66 9.66 55.32 10.32 56 11 C53.36 11.33 50.72 11.66 48 12 C48.33 11.01 48.66 10.02 49 9 C40.10241581 5.91056105 31.96150002 3.83052342 22.5390625 3.24609375 C20 3 20 3 18 2 C16.6265365 1.84995027 15.2471474 1.75161994 13.8671875 1.68359375 C13.06152344 1.64169922 12.25585938 1.59980469 11.42578125 1.55664062 C10.58402344 1.51732422 9.74226563 1.47800781 8.875 1.4375 C8.02550781 1.39431641 7.17601563 1.35113281 6.30078125 1.30664062 C4.20071777 1.20045764 2.10038052 1.09971503 0 1 C0 0.67 0 0.34 0 0 Z " fill="#DF27EA" transform="translate(88,0)"/>
<path d="M0 0 C0.66 0.33 1.32 0.66 2 1 C0.02 2.32 -1.96 3.64 -4 5 C-3.505 6.485 -3.505 6.485 -3 8 C-6.69541586 8.95024979 -9.30458414 8.95024979 -13 8 C-12.34 7.67 -11.68 7.34 -11 7 C-11 6.34 -11 5.68 -11 5 C-24.2 5 -37.4 5 -51 5 C-51 4.67 -51 4.34 -51 4 C-49.73929687 3.98541748 -48.47859375 3.97083496 -47.1796875 3.95581055 C-42.47546885 3.89757513 -37.77171627 3.82034437 -33.06787109 3.73754883 C-31.03702391 3.70441787 -29.00608726 3.67634957 -26.97509766 3.65356445 C-24.04551282 3.61980023 -21.1167391 3.56747401 -18.1875 3.51171875 C-17.28821777 3.50532883 -16.38893555 3.4989389 -15.46240234 3.49235535 C-9.63918759 3.35837042 -5.38958969 2.17160329 0 0 Z " fill="#B83CF1" transform="translate(131,86)"/>
<path d="M0 0 C0.680625 0.309375 1.36125 0.61875 2.0625 0.9375 C5.06296681 2.15744689 5.06296681 2.15744689 8.6875 2.375 C12 3 12 3 13.4375 5.0625 C13.7159375 6.0215625 13.7159375 6.0215625 14 7 C15.32 7 16.64 7 18 7 C18.20625 7.639375 18.4125 8.27875 18.625 8.9375 C19.89538209 11.34925077 19.89538209 11.34925077 23.125 11.75 C24.07375 11.8325 25.0225 11.915 26 12 C26 13.32 26 14.64 26 16 C27.32 16 28.64 16 30 16 C30.66 17.32 31.32 18.64 32 20 C27.98384214 18.53216565 24.50292052 16.60624105 20.859375 14.375 C20.00789886 13.85365479 20.00789886 13.85365479 19.13922119 13.32177734 C17.94805679 12.59082343 16.75811155 11.85787938 15.56933594 11.12304688 C13.74553615 9.99724454 11.91604458 8.88113751 10.0859375 7.765625 C8.92672863 7.05265972 7.76786205 6.33913755 6.609375 5.625 C5.55717773 4.97789063 4.50498047 4.33078125 3.42089844 3.6640625 C1 2 1 2 0 0 Z " fill="#9A20E1" transform="translate(54,53)"/>
<path d="M0 0 C0.66 0.33 1.32 0.66 2 1 C-0.46044197 4.33917125 -2.30024567 6.2139117 -6 8 C-6.33 8.99 -6.66 9.98 -7 11 C-7.99 11 -8.98 11 -10 11 C-10 12.32 -10 13.64 -10 15 C-11.63064764 16.05771739 -13.30280873 17.05273046 -15 18 C-17.29518219 20.3743264 -17.96098229 21.42774033 -18.1875 24.75 C-18.125625 25.4925 -18.06375 26.235 -18 27 C-19.32 27.33 -20.64 27.66 -22 28 C-22 29.32 -22 30.64 -22 32 C-23.98 32.495 -23.98 32.495 -26 33 C-22.27204961 20.27674643 -10.39680705 7.92405294 0 0 Z " fill="#8724D9" transform="translate(38,21)"/>
<path d="M0 0 C0.66 0 1.32 0 2 0 C2.88563089 3.79074537 3.11681301 7.28695898 3.09765625 11.17578125 C3.09282227 12.91118164 3.09282227 12.91118164 3.08789062 14.68164062 C3.07951172 15.87982422 3.07113281 17.07800781 3.0625 18.3125 C3.05798828 19.53001953 3.05347656 20.74753906 3.04882812 22.00195312 C3.03706578 25.00135226 3.02062826 28.00065089 3 31 C1.35 31.33 -0.3 31.66 -2 32 C-1.505 30.515 -1.505 30.515 -1 29 C-0.84890907 26.79040747 -0.75126199 24.57699953 -0.68359375 22.36328125 C-0.62075195 20.41518555 -0.62075195 20.41518555 -0.55664062 18.42773438 C-0.51683013 17.05599239 -0.47711784 15.68424756 -0.4375 14.3125 C-0.39429165 12.92902355 -0.35067661 11.54555973 -0.30664062 10.16210938 C-0.20041972 6.77484281 -0.09837642 3.38750201 0 0 Z " fill="#C915DE" transform="translate(165,44)"/>
<path d="M0 0 C5.50697545 0.76841518 5.50697545 0.76841518 8.15698242 2.01318359 C12.05807833 3.36726085 15.69791771 3.3552182 19.80078125 3.4140625 C20.63715622 3.43342865 21.47353119 3.4527948 22.33525085 3.4727478 C24.9942317 3.53230192 27.6532564 3.57883174 30.3125 3.625 C32.12046109 3.66320206 33.92840442 3.70225509 35.73632812 3.7421875 C40.15740698 3.83798345 44.57857101 3.92210331 49 4 C49 4.33 49 4.66 49 5 C47.81446533 5.02505615 46.62893066 5.0501123 45.4074707 5.07592773 C40.99981282 5.17025532 36.59230322 5.27041377 32.18481445 5.37231445 C30.27892532 5.41556753 28.37299983 5.45724925 26.46704102 5.49731445 C23.72400979 5.55525071 20.98115987 5.6188774 18.23828125 5.68359375 C17.38913651 5.70030624 16.53999176 5.71701874 15.66511536 5.73423767 C11.66292858 5.8339619 7.90681068 6.02416551 4 7 C3.896875 6.360625 3.79375 5.72125 3.6875 5.0625 C3.460625 4.381875 3.23375 3.70125 3 3 C2.01 2.67 1.02 2.34 0 2 C0 1.34 0 0.68 0 0 Z " fill="#9312DE" transform="translate(69,87)"/>
<path d="M0 0 C0.66 0.33 1.32 0.66 2 1 C2 3.31 2 5.62 2 8 C0.35 8.33 -1.3 8.66 -3 9 C-3.33 8.34 -3.66 7.68 -4 7 C-6.64 7.99 -9.28 8.98 -12 10 C-12.33 9.34 -12.66 8.68 -13 8 C-11.453125 7.13375 -11.453125 7.13375 -9.875 6.25 C-6.47343193 4.31020558 -3.23300283 2.20790437 0 0 Z " fill="#690DF1" transform="translate(61,143)"/>
<path d="M0 0 C6.07941335 -0.3647648 9.51007295 0.25503647 15 3 C17.90662895 3.36792772 20.78054682 3.56107698 23.70703125 3.69140625 C24.46371094 3.79324219 25.22039062 3.89507812 26 4 C26.33 4.66 26.66 5.32 27 6 C20.30260874 6.50126005 14.32716173 5.84309992 7.875 4.125 C7.21169678 3.95129883 6.54839355 3.77759766 5.86499023 3.59863281 C4.22213786 3.13518182 2.60724132 2.574914 1 2 C0.67 1.34 0.34 0.68 0 0 Z " fill="#6526D5" transform="translate(66,193)"/>
<path d="M0 0 C1.9375 0.6875 1.9375 0.6875 4 2 C4.75 4.625 4.75 4.625 5 7 C7.97 7.495 7.97 7.495 11 8 C10.67 9.32 10.34 10.64 10 12 C3.51510574 10.53172205 3.51510574 10.53172205 1.0625 8 C0 6 0 6 0 4 C-1.32 3.67 -2.64 3.34 -4 3 C-3.01 2.67 -2.02 2.34 -1 2 C-0.67 1.34 -0.34 0.68 0 0 Z " fill="#A507F6" transform="translate(84,65)"/>
<path d="M0 0 C0.66 1.32 1.32 2.64 2 4 C6.50066475 2.93204565 10.7494534 1.85961414 15 0 C15 0.66 15 1.32 15 2 C15.66 2 16.32 2 17 2 C16.34 3.65 15.68 5.3 15 7 C13.783125 6.814375 12.56625 6.62875 11.3125 6.4375 C7.9433733 6.0021969 5.32237331 6.2182651 2 7 C1.34 6.67 0.68 6.34 0 6 C0 4.02 0 2.04 0 0 Z " fill="#600DF1" transform="translate(32,153)"/>
<path d="M0 0 C4.09501116 1.43474844 7.2603761 3.43465486 10.75 6 C11.71421875 6.70125 12.6784375 7.4025 13.671875 8.125 C16 10 16 10 17 12 C15.68 12 14.36 12 13 12 C12.34 11.01 11.68 10.02 11 9 C10.01 8.67 9.02 8.34 8 8 C8 7.34 8 6.68 8 6 C6.8553125 6.2784375 6.8553125 6.2784375 5.6875 6.5625 C3 7 3 7 0 6 C0 4.02 0 2.04 0 0 Z " fill="#EE0DF3" transform="translate(148,13)"/>
<path d="M0 0 C-10.03867495 3.14938822 -18.43176379 4.58621957 -29 4 C-24.77555911 -0.22444089 -18.41122032 0.66793276 -12.75585938 0.39453125 C-0.80289766 -0.24917514 -0.80289766 -0.24917514 0 0 Z " fill="#6B1ADD" transform="translate(132,195)"/>
<path d="M0 0 C0.33 0.66 0.66 1.32 1 2 C3.64 1.34 6.28 0.68 9 0 C4.85989729 4.54075781 0.17609824 7.71842138 -5 11 C-5.33 10.34 -5.66 9.68 -6 9 C-5.34 9 -4.68 9 -4 9 C-3.81824219 8.15115234 -3.81824219 8.15115234 -3.6328125 7.28515625 C-3.46523437 6.55167969 -3.29765625 5.81820312 -3.125 5.0625 C-2.96257812 4.33160156 -2.80015625 3.60070312 -2.6328125 2.84765625 C-2 1 -2 1 0 0 Z " fill="#8918E6" transform="translate(155,176)"/>
<path d="M0 0 C0 0.66 0 1.32 0 2 C-0.62648438 2.26554687 -1.25296875 2.53109375 -1.8984375 2.8046875 C-2.71570312 3.15789062 -3.53296875 3.51109375 -4.375 3.875 C-5.18710937 4.22304687 -5.99921875 4.57109375 -6.8359375 4.9296875 C-9.13802299 5.92446067 -9.13802299 5.92446067 -11 8 C-11.37207354 10.71615864 -11.37207354 10.71615864 -11.4140625 13.8828125 C-11.45273437 15.04941406 -11.49140625 16.21601563 -11.53125 17.41796875 C-11.5621875 18.64128906 -11.593125 19.86460937 -11.625 21.125 C-11.66367187 22.35605469 -11.70234375 23.58710938 -11.7421875 24.85546875 C-11.8366999 27.90349376 -11.92225494 30.95150862 -12 34 C-12.33 34 -12.66 34 -13 34 C-13 24.43 -13 14.86 -13 5 C-2 0 -2 0 0 0 Z " fill="#F7DCFE" transform="translate(48,122)"/>
<path d="M0 0 C0.66 0.33 1.32 0.66 2 1 C1.39301257 5.12751449 -0.03810791 8.3321148 -2 12 C-3.32 11.67 -4.64 11.34 -6 11 C-5.55530671 5.96014269 -3.28656638 3.62365012 0 0 Z " fill="#8F08F7" transform="translate(25,36)"/>
<path d="M0 0 C0 1.65 0 3.3 0 5 C-5.17578125 8.22265625 -5.17578125 8.22265625 -7 9 C-7.99 8.67 -8.98 8.34 -10 8 C-8.18341255 3.37595922 -5.13109685 0 0 0 Z " fill="#A906F8" transform="translate(47,20)"/>
<path d="M0 0 C2.64 0.33 5.28 0.66 8 1 C9.125 3.3125 9.125 3.3125 10 6 C9.01 7.485 9.01 7.485 8 9 C6.65654015 8.26829419 5.32539416 7.51394247 4 6.75 C2.88625 6.12351562 2.88625 6.12351562 1.75 5.484375 C1.1725 4.99453125 0.595 4.5046875 0 4 C0 2.68 0 1.36 0 0 Z " fill="#9F09F7" transform="translate(53,48)"/>
<path d="M0 0 C9.59453303 1.55808656 9.59453303 1.55808656 13 6 C11.20841511 6.02696365 9.41671527 6.04637917 7.625 6.0625 C6.62726563 6.07410156 5.62953125 6.08570313 4.6015625 6.09765625 C2 6 2 6 0 5 C0 3.35 0 1.7 0 0 Z " fill="#9311EB" transform="translate(128,138)"/>
<path d="M0 0 C4.3177458 0.50797009 8.03302114 1.19682779 12 3 C8.68629 5.20914 7.6553979 5.22481553 3.8125 5.125 C2.91144531 5.10695313 2.01039062 5.08890625 1.08203125 5.0703125 C0.39496094 5.04710938 -0.29210938 5.02390625 -1 5 C-0.67 3.35 -0.34 1.7 0 0 Z " fill="#8A13EB" transform="translate(57,83)"/>
<path d="M0 0 C0 0.66 0 1.32 0 2 C-0.99 2 -1.98 2 -3 2 C-3 2.99 -3 3.98 -3 5 C-3.804375 5.2475 -4.60875 5.495 -5.4375 5.75 C-8.171081 6.72238859 -8.171081 6.72238859 -8.8125 9.125 C-8.874375 9.74375 -8.93625 10.3625 -9 11 C-9.598125 10.67 -10.19625 10.34 -10.8125 10 C-13.05386471 8.79212012 -13.05386471 8.79212012 -16 9 C-14.41906946 7.87162591 -12.83515284 6.74743482 -11.25 5.625 C-10.36828125 4.99851562 -9.4865625 4.37203125 -8.578125 3.7265625 C-3.01357466 0 -3.01357466 0 0 0 Z " fill="#A518E3" transform="translate(56,11)"/>
<path d="M0 0 C0.66 0.33 1.32 0.66 2 1 C0.04808712 3.17277152 -1.91097537 5.33822461 -3.875 7.5 C-4.43058594 8.12003906 -4.98617187 8.74007812 -5.55859375 9.37890625 C-6.09355469 9.96542969 -6.62851563 10.55195313 -7.1796875 11.15625 C-7.67194824 11.70087891 -8.16420898 12.24550781 -8.67138672 12.80664062 C-10 14 -10 14 -12 14 C-12 13.34 -12 12.68 -12 12 C-11.34 12 -10.68 12 -10 12 C-9.896875 11.401875 -9.79375 10.80375 -9.6875 10.1875 C-8.89505679 7.66608978 -7.88056492 6.80534232 -6 5 C-4.82425289 2.90010348 -4.82425289 2.90010348 -4 1 C-3.01 1 -2.02 1 -1 1 C-0.67 0.67 -0.34 0.34 0 0 Z " fill="#961FE1" transform="translate(177,161)"/>
<path d="M0 0 C0.66 0.33 1.32 0.66 2 1 C-2.02892642 5.51728114 -5.94720251 8.52232221 -12.12109375 9.25 C-15.93850651 9.36207083 -17.77314263 9.15123825 -21 7 C-20.67 6.34 -20.34 5.68 -20 5 C-18.515 5.99 -18.515 5.99 -17 7 C-9.83975891 7 -5.61437706 4.24977152 0 0 Z " fill="#FADBFE" transform="translate(114,73)"/>
<path d="M0 0 C1 3 1 3 -0.65234375 6.57421875 C-1.40387723 7.95092168 -2.1660567 9.32185409 -2.9375 10.6875 C-3.51661133 11.7403418 -3.51661133 11.7403418 -4.10742188 12.81445312 C-5.06261773 14.54795672 -6.03015386 16.27465009 -7 18 C-7.33 17.34 -7.66 16.68 -8 16 C-7.30502993 14.27912172 -6.60039404 12.56081059 -5.82421875 10.875 C-4.87232707 8.80745055 -4.87232707 8.80745055 -4 5.75 C-3.0165797 3.04559419 -2.19603933 1.79675945 0 0 Z " fill="#AF18E5" transform="translate(192,135)"/>
<path d="M0 0 C0.33 0 0.66 0 1 0 C1.0582253 3.08325358 1.09367134 6.16636505 1.125 9.25 C1.14175781 10.12269531 1.15851563 10.99539062 1.17578125 11.89453125 C1.18222656 12.73886719 1.18867188 13.58320312 1.1953125 14.453125 C1.20578613 15.22817383 1.21625977 16.00322266 1.22705078 16.80175781 C0.97326556 19.25883539 0.22444152 20.87311542 -1 23 C-1.937402 14.91807467 -2.15408416 7.88644034 0 0 Z " fill="#C615E6" transform="translate(198,98)"/>
<path d="M0 0 C0.78375 0.185625 1.5675 0.37125 2.375 0.5625 C4.97089775 1.25962266 4.97089775 1.25962266 7 0 C6.67 1.65 6.34 3.3 6 5 C5.34 5 4.68 5 4 5 C4 5.99 4 6.98 4 8 C2.35 8.33 0.7 8.66 -1 9 C-0.835 8.443125 -0.67 7.88625 -0.5 7.3125 C0.04041351 4.81308751 0.07082065 2.54954338 0 0 Z " fill="#940AF6" transform="translate(161,168)"/>
<path d="M0 0 C0.33 0 0.66 0 1 0 C1.30654742 8.61738853 1.39589303 15.93475404 -2 24 C-2.66 24 -3.32 24 -4 24 C-3.79503906 23.10539062 -3.59007812 22.21078125 -3.37890625 21.2890625 C-1.79844445 14.19588943 -0.48479039 7.25513889 0 0 Z " fill="#FCC6FE" transform="translate(199,107)"/>
<path d="M0 0 C8 3 16 6 24 9 C19.39664439 10.4738814 16.27191072 8.81419285 12 7 C10.948125 6.56558594 9.89625 6.13117188 8.8125 5.68359375 C5.87060746 4.46590002 2.93378283 3.23707843 0 2 C0 1.34 0 0.68 0 0 Z " fill="#8223D9" transform="translate(35,73)"/>
<path d="M0 0 C3.66881155 0.70554068 6.70450534 2.27735506 10 4 C7.58296757 6.41703243 6.39154295 6.83849795 3 7 C0.6875 5.0625 0.6875 5.0625 -1 3 C-0.67 2.01 -0.34 1.02 0 0 Z " fill="#9908F6" transform="translate(152,153)"/>
<path d="M0 0 C0.66 0.33 1.32 0.66 2 1 C-0.28819146 2.50554634 -2.58021169 4.00457043 -4.875 5.5 C-5.85146484 6.14388672 -5.85146484 6.14388672 -6.84765625 6.80078125 C-11.7734375 10 -11.7734375 10 -14 10 C-14.33 10.99 -14.66 11.98 -15 13 C-16.32 12.67 -17.64 12.34 -19 12 C-15.88327524 9.9661749 -12.75539064 7.95021524 -9.625 5.9375 C-8.73554687 5.35677734 -7.84609375 4.77605469 -6.9296875 4.17773438 C-6.07890625 3.63310547 -5.228125 3.08847656 -4.3515625 2.52734375 C-3.56604004 2.01937256 -2.78051758 1.51140137 -1.97119141 0.98803711 C-1.32069824 0.66198486 -0.67020508 0.33593262 0 0 Z " fill="#7D27D4" transform="translate(89,124)"/>
<path d="M0 0 C2.23416507 1.15463153 3.99912607 2.44932271 6 4 C5.01 4.33 4.02 4.66 3 5 C2.1028125 4.2884375 2.1028125 4.2884375 1.1875 3.5625 C-1.76337261 1.45473385 -3.4206351 1.64908187 -7 2 C-9.38370404 2.56115367 -11.66368411 3.25237891 -14 4 C-9.33338838 -0.82216534 -6.62244152 -1.6433466 0 0 Z " fill="#8726D7" transform="translate(105,120)"/>
<path d="M0 0 C3.9492568 0.55105909 7.34920174 1.38935371 11 3 C11 3.66 11 4.32 11 5 C8.69 5.66 6.38 6.32 4 7 C3.896875 6.360625 3.79375 5.72125 3.6875 5.0625 C3.460625 4.381875 3.23375 3.70125 3 3 C2.01 2.67 1.02 2.34 0 2 C0 1.34 0 0.68 0 0 Z " fill="#8D16E8" transform="translate(69,87)"/>
<path d="M0 0 C0 0.66 0 1.32 0 2 C-3 4 -3 4 -6 4 C-6.2475 4.61875 -6.495 5.2375 -6.75 5.875 C-8.24391702 8.41465893 -9.21539622 9.09909878 -12 10 C-14.1328125 9.54296875 -14.1328125 9.54296875 -16 9 C-13.71180854 7.49445366 -11.41978831 5.99542957 -9.125 4.5 C-8.47402344 4.07074219 -7.82304688 3.64148438 -7.15234375 3.19921875 C-2.2265625 0 -2.2265625 0 0 0 Z " fill="#FAD8FD" transform="translate(132,63)"/>
<path d="M0 0 C0.66 0.33 1.32 0.66 2 1 C-0.46044197 4.33917125 -2.30024567 6.2139117 -6 8 C-6.33 8.99 -6.66 9.98 -7 11 C-7.99 11 -8.98 11 -10 11 C-10 12.32 -10 13.64 -10 15 C-10.66 14.67 -11.32 14.34 -12 14 C-12 11 -12 11 -10.64453125 9.31640625 C-10.03996094 8.73761719 -9.43539063 8.15882812 -8.8125 7.5625 C-8.17828125 6.9540625 -7.5440625 6.345625 -6.890625 5.71875 C-4.67313821 3.70285292 -2.38872216 1.809638 0 0 Z " fill="#9728E0" transform="translate(38,21)"/>
<path d="M0 0 C1.98 0 3.96 0 6 0 C6.33 0.99 6.66 1.98 7 3 C8.32 3 9.64 3 11 3 C11 3.66 11 4.32 11 5 C8.03 5 5.06 5 2 5 C0 1 0 1 0 0 Z " fill="#670CF2" transform="translate(91,194)"/>
<path d="M0 0 C-2.09836004 1.03271642 -4.20390891 2.05083717 -6.3125 3.0625 C-7.48425781 3.63097656 -8.65601563 4.19945312 -9.86328125 4.78515625 C-13 6 -13 6 -16 5 C-13 3 -13 3 -9 3 C-8.67 2.01 -8.34 1.02 -8 0 C-4.99093136 -1.24513185 -3.0590674 -0.84653438 0 0 Z " fill="#761DDB" transform="translate(148,188)"/>
<path d="M0 0 C0.66 0 1.32 0 2 0 C2.67756882 1.55780332 3.34159457 3.12150096 4 4.6875 C4.37125 5.55761719 4.7425 6.42773438 5.125 7.32421875 C6.01870488 10.0572002 6.16449676 12.14700934 6 15 C2.35219334 10.8310781 0 5.55196264 0 0 Z " fill="#5B1DDA" transform="translate(5,129)"/>
<path d="M0 0 C4.19813062 3.74427866 6.07776117 6.8403063 8 12 C7.34 12.66 6.68 13.32 6 14 C5.01 14 4.02 14 3 14 C3.185625 13.0925 3.37125 12.185 3.5625 11.25 C4.070669 7.49610922 4.070669 7.49610922 3 4 C2.01 3.67 1.02 3.34 0 3 C0 2.01 0 1.02 0 0 Z " fill="#E611ED" transform="translate(184,49)"/>
<path d="M0 0 C3.22843082 0.93454576 4.66514688 1.44676441 6.4375 4.375 C7 7 7 7 6.125 9.3125 C5.568125 10.1478125 5.568125 10.1478125 5 11 C3.68 10.34 2.36 9.68 1 9 C1 8.34 1 7.68 1 7 C1.99 6.67 2.98 6.34 4 6 C3.67 5.34 3.34 4.68 3 4 C2.67 3.34 2.34 2.68 2 2 C1.34 2 0.68 2 0 2 C0 1.34 0 0.68 0 0 Z " fill="#8D13EC" transform="translate(111,125)"/>
<path d="M0 0 C0.33 0 0.66 0 1 0 C1.39058179 2.24734752 1.76192958 4.49804421 2.125 6.75 C2.33382813 8.00296875 2.54265625 9.2559375 2.7578125 10.546875 C2.99507276 13.92974709 2.8707364 15.25625328 1 18 C0.67 18 0.34 18 0 18 C0 12.06 0 6.12 0 0 Z " fill="#F0DAFD" transform="translate(0,109)"/>
<path d="M0 0 C0.845625 0.309375 1.69125 0.61875 2.5625 0.9375 C6.0497854 2.01538821 9.38177535 2.56581304 13 3 C13 2.34 13 1.68 13 1 C13.99 1.33 14.98 1.66 16 2 C12.91510052 4.33704506 11.36641906 5.0064284 7.4375 4.9375 C3.76037999 3.93464909 2.35844687 2.92447412 0 0 Z " fill="#9B24D8" transform="translate(91,76)"/>
<path d="M0 0 C3.63 0 7.26 0 11 0 C8.96180154 2.03819846 7.70582202 2.67841059 5.0625 3.6875 C4.37285156 3.95949219 3.68320312 4.23148437 2.97265625 4.51171875 C1 5 1 5 -2 4 C-1.34 4 -0.68 4 0 4 C0 2.68 0 1.36 0 0 Z " fill="#7A1AE2" transform="translate(53,115)"/>
<path d="M0 0 C9.41002278 -0.3690205 9.41002278 -0.3690205 14 2 C14 2.33 14 2.66 14 3 C12.41705218 3.05437607 10.83355744 3.09296271 9.25 3.125 C8.36828125 3.14820313 7.4865625 3.17140625 6.578125 3.1953125 C3.8864142 2.99139502 2.30095026 2.36551721 0 1 C0 0.67 0 0.34 0 0 Z " fill="#611DE2" transform="translate(66,193)"/>
<path d="M0 0 C4.95 0.99 4.95 0.99 10 2 C10.33 3.65 10.66 5.3 11 7 C6.89188572 5.55007731 3.53144334 3.54592427 0 1 C0 0.67 0 0.34 0 0 Z " fill="#921CDF" transform="translate(43,46)"/>
<path d="M0 0 C4.455 0.99 4.455 0.99 9 2 C9 2.66 9 3.32 9 4 C8.34 4 7.68 4 7 4 C7 4.66 7 5.32 7 6 C6.34 6 5.68 6 5 6 C5 5.34 5 4.68 5 4 C2.03 3.505 2.03 3.505 -1 3 C-0.67 2.01 -0.34 1.02 0 0 Z " fill="#B704FA" transform="translate(159,120)"/>
<path d="M0 0 C-0.33 1.32 -0.66 2.64 -1 4 C-3.35171131 3.40138258 -5.6859378 2.73075648 -8 2 C-8.33 1.34 -8.66 0.68 -9 0 C-5.67465243 -1.10844919 -3.37817425 -0.84454356 0 0 Z " fill="#A211EB" transform="translate(95,73)"/>
<path d="M0 0 C1.46300982 0.93018526 2.92025579 1.86944027 4.375 2.8125 C5.18710938 3.33457031 5.99921875 3.85664063 6.8359375 4.39453125 C9 6 9 6 11 9 C9.68 9 8.36 9 7 9 C6.34 8.01 5.68 7.02 5 6 C4.01 5.67 3.02 5.34 2 5 C2 4.34 2 3.68 2 3 C1.34 3 0.68 3 0 3 C0 2.01 0 1.02 0 0 Z " fill="#E21CE4" transform="translate(154,16)"/>
<path d="M0 0 C-1.44253657 3.36591866 -3.33264727 5.51047079 -6 8 C-6.66 7.34 -7.32 6.68 -8 6 C-3.38461538 0 -3.38461538 0 0 0 Z " fill="#8409FA" transform="translate(92,125)"/>
<path d="M0 0 C1.32 0 2.64 0 4 0 C4 0.66 4 1.32 4 2 C4.99 2.33 5.98 2.66 7 3 C7 3.66 7 4.32 7 5 C5.35 5.33 3.7 5.66 2 6 C2 5.34 2 4.68 2 4 C1.34 3.67 0.68 3.34 0 3 C0 2.01 0 1.02 0 0 Z " fill="#720DF0" transform="translate(46,114)"/>
<path d="M0 0 C1.65 0 3.3 0 5 0 C5 1.32 5 2.64 5 4 C6.32 4 7.64 4 9 4 C9.66 5.32 10.32 6.64 11 8 C6.40378078 6.5129879 3.53027653 4.20187872 0 1 C0 0.67 0 0.34 0 0 Z " fill="#9E1AE9" transform="translate(75,65)"/>
<path d="M0 0 C-3.7367843 2.49118953 -5.74451819 2.2065226 -10.1875 2.125 C-11.45980469 2.10695312 -12.73210937 2.08890625 -14.04296875 2.0703125 C-15.50669922 2.03550781 -15.50669922 2.03550781 -17 2 C-17 1.67 -17 1.34 -17 1 C-14.91835982 0.63601378 -12.83459438 0.28416713 -10.75 -0.0625 C-9.00976562 -0.35833984 -9.00976562 -0.35833984 -7.234375 -0.66015625 C-4.37477376 -0.9606216 -2.66674071 -0.9439206 0 0 Z " fill="#EAC8FE" transform="translate(125,198)"/>
<path d="M0 0 C3.375 -0.1875 3.375 -0.1875 7 0 C7.66 0.99 8.32 1.98 9 3 C7.02 3.33 5.04 3.66 3 4 C2.01 2.68 1.02 1.36 0 0 Z " fill="#D904F8" transform="translate(137,50)"/>
<path d="M0 0 C-0.66 1.65 -1.32 3.3 -2 5 C-3.32 4.67 -4.64 4.34 -6 4 C-6 4.66 -6 5.32 -6 6 C-7.32 5.67 -8.64 5.34 -10 5 C-8.71186658 4.16121545 -7.41936744 3.32913217 -6.125 2.5 C-5.40570313 2.0359375 -4.68640625 1.571875 -3.9453125 1.09375 C-2 0 -2 0 0 0 Z " fill="#FCD9FD" transform="translate(161,45)"/>
<path d="M0 0 C0.99 0 1.98 0 3 0 C3 0.66 3 1.32 3 2 C3.99 2 4.98 2 6 2 C6 2.66 6 3.32 6 4 C7.32 4.66 8.64 5.32 10 6 C5.87248551 5.39301257 2.6678852 3.96189209 -1 2 C-0.67 1.34 -0.34 0.68 0 0 Z " fill="#5E22D3" transform="translate(55,187)"/>
<path d="M0 0 C0 0.66 0 1.32 0 2 C-0.66 2 -1.32 2 -2 2 C-2.33 3.32 -2.66 4.64 -3 6 C-4.98 6 -6.96 6 -9 6 C-3.2 0 -3.2 0 0 0 Z " fill="#6F1CDD" transform="translate(70,137)"/>
<path d="M0 0 C3.41021743 0.78697325 6.68885166 1.87119943 10 3 C10 3.33 10 3.66 10 4 C7.25 4.75 7.25 4.75 4 5 C1.625 3.125 1.625 3.125 0 1 C0 0.67 0 0.34 0 0 Z " fill="#820BF0" transform="translate(35,75)"/>
<path d="M0 0 C1.65 0.33 3.3 0.66 5 1 C5 1.99 5 2.98 5 4 C3.68 4 2.36 4 1 4 C0.67 4.99 0.34 5.98 0 7 C-0.66 6.34 -1.32 5.68 -2 5 C-1.01 4.01 -0.02 3.02 1 2 C0.67 1.34 0.34 0.68 0 0 Z " fill="#E804FA" transform="translate(155,40)"/>
<path d="M0 0 C-0.8125 2.4375 -0.8125 2.4375 -2 5 C-2.99 5.33 -3.98 5.66 -5 6 C-5.33 6.66 -5.66 7.32 -6 8 C-6 4 -6 4 -4.125 1.75 C-2 0 -2 0 0 0 Z " fill="#F003F9" transform="translate(172,36)"/>
<path d="M0 0 C1.12894876 0.93274109 2.25300876 1.87140122 3.375 2.8125 C4.00148437 3.33457031 4.62796875 3.85664063 5.2734375 4.39453125 C7 6 7 6 9 9 C7.66666667 8.33333333 6.33333333 7.66666667 5 7 C3.9171875 6.5978125 3.9171875 6.5978125 2.8125 6.1875 C1 5 1 5 0.25 2.375 C0.1675 1.59125 0.085 0.8075 0 0 Z " fill="#E432E7" transform="translate(166,25)"/>
<path d="M0 0 C1.4835001 0.42257276 2.96176424 0.86356322 4.4375 1.3125 C5.67306641 1.67794922 5.67306641 1.67794922 6.93359375 2.05078125 C7.61550781 2.36402344 8.29742187 2.67726562 9 3 C9.33 3.99 9.66 4.98 10 6 C5.56909529 4.79157144 3.01887244 3.48331435 0 0 Z " fill="#591FD5" transform="translate(44,182)"/>
<path d="M0 0 C2.97 0.495 2.97 0.495 6 1 C5.67 1.99 5.34 2.98 5 4 C5.66 4 6.32 4 7 4 C7 4.66 7 5.32 7 6 C7.66 6 8.32 6 9 6 C8.67 6.66 8.34 7.32 8 8 C6.66372225 6.85760183 5.33104612 5.71098945 4 4.5625 C3.2575 3.92441406 2.515 3.28632813 1.75 2.62890625 C1.1725 2.09136719 0.595 1.55382812 0 1 C0 0.67 0 0.34 0 0 Z " fill="#642AD6" transform="translate(27,168)"/>
<path d="M0 0 C1.485 0.99 1.485 0.99 3 2 C3.1875 5.125 3.1875 5.125 3 8 C2.01 8 1.02 8 0 8 C0 5.36 0 2.72 0 0 Z " fill="#5E0DED" transform="translate(5,121)"/>
<path d="M0 0 C2.125 0.375 2.125 0.375 4 1 C2.02 1.99 2.02 1.99 0 3 C0 4.32 0 5.64 0 7 C-1.32 7.33 -2.64 7.66 -4 8 C-2.25 2.25 -2.25 2.25 0 0 Z " fill="#8419E0" transform="translate(16,46)"/>
<path d="M0 0 C0.66 0.33 1.32 0.66 2 1 C-1.465 3.97 -1.465 3.97 -5 7 C-5.99 6.34 -6.98 5.68 -8 5 C-6.71475739 4.13619741 -5.42157581 3.28419631 -4.125 2.4375 C-3.04605469 1.72400391 -3.04605469 1.72400391 -1.9453125 0.99609375 C-1.30335938 0.66738281 -0.66140625 0.33867187 0 0 Z " fill="#F6DCFE" transform="translate(156,182)"/>
<path d="M0 0 C2.5 1.3125 2.5 1.3125 5 3 C5 3.99 5 4.98 5 6 C3.68 5.67 2.36 5.34 1 5 C1 4.34 1 3.68 1 3 C0.34 3 -0.32 3 -1 3 C-0.67 2.01 -0.34 1.02 0 0 Z " fill="#590EF8" transform="translate(33,169)"/>
<path d="M0 0 C1.98 0.66 3.96 1.32 6 2 C6 3.98 6 5.96 6 8 C3.33264727 5.51047079 1.44253657 3.36591866 0 0 Z " fill="#5F24D9" transform="translate(16,154)"/>
<path d="M0 0 C0.33 0 0.66 0 1 0 C1.33 3.63 1.66 7.26 2 11 C1.01 11 0.02 11 -1 11 C-1.02688151 9.35425434 -1.04634123 7.70838587 -1.0625 6.0625 C-1.07410156 5.14597656 -1.08570313 4.22945313 -1.09765625 3.28515625 C-1 1 -1 1 0 0 Z " fill="#DC08F1" transform="translate(197,85)"/>
<path d="M0 0 C1.2065625 0.0309375 1.2065625 0.0309375 2.4375 0.0625 C1.1175 2.3725 -0.2025 4.6825 -1.5625 7.0625 C-1.8925 7.0625 -2.2225 7.0625 -2.5625 7.0625 C-2.94383299 5.0710944 -3.27575582 3.06970923 -3.5625 1.0625 C-2.5625 0.0625 -2.5625 0.0625 0 0 Z " fill="#9E20E0" transform="translate(181.5625,153.9375)"/>
<path d="M0 0 C0.33 0 0.66 0 1 0 C1.08131463 1.43655854 1.13933559 2.8744483 1.1875 4.3125 C1.23970703 5.51326172 1.23970703 5.51326172 1.29296875 6.73828125 C0.93801608 9.47851584 0.10633718 10.29171079 -2 12 C-1.44687265 7.97007218 -0.8441938 3.97977076 0 0 Z " fill="#762FD7" transform="translate(3,74)"/>
<path d="M0 0 C0.66 0 1.32 0 2 0 C0.90931332 3.77545388 0.0916909 6.47043472 -3 9 C-1.125 2.25 -1.125 2.25 0 0 Z " fill="#A61FDB" transform="translate(187,144)"/>
<path d="M0 0 C0.99 0.33 1.98 0.66 3 1 C2.01 2.32 1.02 3.64 0 5 C0.66 5.33 1.32 5.66 2 6 C1.01 6.99 0.02 7.98 -1 9 C-1.09765625 2.84765625 -1.09765625 2.84765625 -1 1 C-0.67 0.67 -0.34 0.34 0 0 Z " fill="#710FEC" transform="translate(5,71)"/>
<path d="M0 0 C2.97 1.65 5.94 3.3 9 5 C7.68 5.33 6.36 5.66 5 6 C4.01 5.34 3.02 4.68 2 4 C2 3.34 2 2.68 2 2 C1.34 2 0.68 2 0 2 C0 1.34 0 0.68 0 0 Z " fill="#F4D0FD" transform="translate(40,45)"/>
</svg>
